<?xml version="1.0" standalone="no"?>
<!DOCTYPE svg PUBLIC "-//W3C//DTD SVG 20010904//EN"
 "http://www.w3.org/TR/2001/REC-SVG-20010904/DTD/svg10.dtd">
<svg version="1.0" xmlns="http://www.w3.org/2000/svg"
 width="84.000000pt" height="84.000000pt" viewBox="0 0 84.000000 84.000000"
 preserveAspectRatio="xMidYMid meet">

<g transform="translate(0.000000,84.000000) scale(0.100000,-0.100000)"
fill="#000000" stroke="none">
<path d="M370 692 c-26 -27 -44 -38 -64 -38 -39 1 -56 -26 -33 -52 22 -24 22
-70 0 -94 -25 -28 -6 -51 48 -60 30 -5 50 -16 62 -33 22 -30 51 -32 69 -7 17
25 51 42 81 42 38 0 53 24 33 55 -21 32 -20 74 1 97 24 27 6 51 -43 59 -26 5
-47 17 -64 38 -15 17 -33 31 -41 31 -8 -1 -30 -18 -49 -38z m68 1 c-2 -10 -10
-18 -18 -18 -8 0 -16 8 -18 18 -2 12 3 17 18 17 15 0 20 -5 18 -17z m51 -43
l24 -16 -27 -17 c-21 -14 -29 -15 -46 -5 -16 10 -24 10 -40 0 -23 -14 -60 -1
-60 22 0 32 108 43 149 16z m-171 -27 c-2 -10 -10 -18 -18 -18 -8 0 -16 8 -18
18 -2 12 3 17 18 17 15 0 20 -5 18 -17z m240 0 c-2 -10 -10 -18 -18 -18 -8 0
-16 8 -18 18 -2 12 3 17 18 17 15 0 20 -5 18 -17z m-166 -57 c19 -23 25 -101
7 -111 -22 -14 -54 6 -71 43 -44 95 2 142 64 68z m138 -4 c0 -37 -32 -99 -56
-111 -30 -13 -44 4 -44 55 0 36 5 47 36 73 28 26 39 30 50 20 8 -6 14 -23 14
-37z m-92 21 c-2 -10 -10 -18 -18 -18 -8 0 -16 8 -18 18 -2 12 3 17 18 17 15
0 20 -5 18 -17z m-120 -100 c-2 -10 -10 -18 -18 -18 -8 0 -16 8 -18 18 -2 12
3 17 18 17 15 0 20 -5 18 -17z m240 0 c-2 -10 -10 -18 -18 -18 -8 0 -16 8 -18
18 -2 12 3 17 18 17 15 0 20 -5 18 -17z m-120 -60 c-2 -10 -10 -18 -18 -18 -8
0 -16 8 -18 18 -2 12 3 17 18 17 15 0 20 -5 18 -17z"/>
<path d="M205 391 c-24 -5 -31 -12 -33 -36 -2 -17 -10 -38 -19 -47 -35 -40 -6
-69 160 -163 40 -23 144 -43 260 -51 l97 -7 0 92 c0 74 -3 91 -15 91 -8 0 -61
20 -117 45 -107 47 -136 53 -156 33 -20 -20 -13 -45 21 -72 l32 -26 -37 0
c-35 0 -39 3 -77 69 -36 61 -58 84 -79 80 -4 -1 -20 -4 -37 -8z m3 -35 c0 -26
84 -176 89 -160 2 6 -15 43 -38 83 -41 72 -45 101 -11 101 12 0 32 -25 61 -76
l43 -76 42 6 c22 3 89 8 147 12 121 7 119 9 119 -90 l0 -49 -102 6 c-116 7
-205 26 -243 51 -14 9 -51 55 -82 101 -47 71 -54 87 -43 100 16 20 18 19 18
-9z m300 -46 c45 -19 82 -38 82 -42 0 -5 -29 -8 -64 -8 -48 0 -74 6 -100 21
-36 21 -48 53 -23 62 15 6 6 9 105 -33z m-288 -55 c35 -51 32 -54 -19 -23 -42
26 -51 36 -44 55 10 24 32 13 63 -32z"/>
</g>
</svg>
